<?xml version='1.0' encoding='utf-8'?>
<svg xmlns="http://www.w3.org/2000/svg" enable-background="new 0 0 612 612" version="1.1" viewBox="0 0 612 612">
		<path d="m581.35 146.42h-128.26l-4.336-30.646-3.326-20.661c-1.343-8.323-5.75-15.224-12.665-20.988-7.079-5.899-14.655-8.991-22.985-8.991h-208.55c-8.33 0-15.991 2.992-22.992 8.991-6.994 5.999-10.711 13.035-11.99 20.988l-3.333 20.661-4.663 30.646h-127.6c-16.994 0-30.654 13.661-30.654 29.986v339.81c0 16.986 13.66 30.646 30.654 30.646h550.69c16.993 0 30.653-13.66 30.653-30.646v-339.81c0-16.325-13.66-29.986-30.653-29.986zm-6.326 363.47h-538.37v-326.82h121.6c18.323 0 34.144-13.632 36.645-31.314l4.329-30.646 3.333-18.991h206.55l3 18.991 4.662 30.646c2.687 17.654 18.656 31.314 36.318 31.314h121.93v326.82z"/>
		<path d="m515.72 270.02c15.991 0 29.317-13.653 29.317-29.644 0-16.326-12.992-29.986-29.317-29.986s-29.317 13.66-29.317 29.986c-1e-3 15.991 13.326 29.644 29.317 29.644z"/>
		<path d="m305.5 192.73c-37.64 0-70.291 13.653-97.277 40.639s-40.646 59.637-40.646 97.285c0 37.64 13.66 70.291 40.646 97.277s59.637 39.751 97.277 40.312c74.634 1.102 138.8-63.625 137.92-137.59-0.448-37.981-13.66-70.298-40.64-97.285-26.986-26.985-59.303-40.638-97.284-40.638zm71.293 209.55c-19.651 19.651-43.305 29.311-71.293 29.311-27.647 0-51.3-9.659-70.959-29.311-19.659-19.659-29.317-43.646-29.317-71.627 0-27.654 9.659-51.642 29.317-71.3 19.659-19.652 43.312-29.645 70.959-29.645 27.988 0 51.642 9.993 71.293 29.645 19.658 19.659 29.651 43.646 29.651 71.3 0 27.982-9.993 51.968-29.651 71.627z"/>
</svg>