<?xml version="1.0" encoding="UTF-8"?>
<svg width="210mm" height="297mm" version="1.1" viewBox="0 0 744.09448819 1052.3622047" xmlns="http://www.w3.org/2000/svg">
 <rect x="140" y="286.65" width="474.29" height="354.29" ry="54.286"/>
 <rect x="174.29" y="329.51" width="45.714" height="265.71" ry="22.857" fill="#fff"/>
 <circle cx="411.43" cy="458.08" r="134.29" fill="#fff"/>
 <circle cx="412.86" cy="459.51" r="107.14"/>
 <circle cx="414.29" cy="458.08" r="91.429" fill="#fff"/>
 <ellipse cx="425.71" cy="469.51" rx="85.714" ry="91.429"/>
 <circle cx="444.29" cy="479.51" r="30" fill="#fff"/>
 <path d="m349.91 234.65c-1.402 0-2.6706 0.14404-3.8078 0.40888-9.0052 1.6129-18.936 7.8559-23.773 15.359l-18.351 28.465c-5.6317 8.7353-2.1628 15.768 7.7778 15.768h216.78c9.9406 0 13.411-7.0328 7.779-15.768l-18.351-28.465c-4.8374-7.5034-14.769-13.746-23.775-15.359-1.137-0.26475-2.406-0.40888-3.8078-0.40888h-140.46z"/>
</svg>
