<svg width="173" height="100" viewBox="0 0 173 100" fill="none" xmlns="http://www.w3.org/2000/svg">
<path d="M76.9106 50.9971C76.9106 56.4617 71.9802 60.4884 65.9294 60.4884C59.8787 60.4884 54.9482 56.4617 54.9482 50.9971C54.9482 45.4941 59.8787 41.5059 65.9294 41.5059C71.9802 41.5059 76.9106 45.4941 76.9106 50.9971ZM72.1035 50.9971C72.1035 47.5823 69.246 45.2459 65.9294 45.2459C62.6128 45.2459 59.7553 47.5823 59.7553 50.9971C59.7553 54.3777 62.6128 56.7484 65.9294 56.7484C69.246 56.7484 72.1035 54.3734 72.1035 50.9971Z" fill="#EA4335"/>
<path d="M100.6 50.9971C100.6 56.4617 95.6696 60.4884 89.6189 60.4884C83.5681 60.4884 78.6377 56.4617 78.6377 50.9971C78.6377 45.4984 83.5681 41.5059 89.6189 41.5059C95.6696 41.5059 100.6 45.4941 100.6 50.9971ZM95.793 50.9971C95.793 47.5823 92.9354 45.2459 89.6189 45.2459C86.3023 45.2459 83.4447 47.5823 83.4447 50.9971C83.4447 54.3777 86.3023 56.7484 89.6189 56.7484C92.9354 56.7484 95.793 54.3734 95.793 50.9971Z" fill="#FBBC05"/>
<path d="M123.303 42.0793V59.1191C123.303 66.1284 118.535 68.9912 112.899 68.9912C107.594 68.9912 104.401 65.9145 103.196 63.3983L107.382 61.8877C108.127 63.4325 109.953 65.2555 112.894 65.2555C116.502 65.2555 118.738 63.3256 118.738 59.6925V58.3274H118.57C117.494 59.4785 115.421 60.4842 112.806 60.4842C107.332 60.4842 102.318 56.3504 102.318 51.0314C102.318 45.6738 107.332 41.5059 112.806 41.5059C115.416 41.5059 117.489 42.5115 118.57 43.6283H118.738V42.0836H123.303V42.0793ZM119.078 51.0314C119.078 47.6893 116.507 45.2459 113.235 45.2459C109.918 45.2459 107.14 47.6893 107.14 51.0314C107.14 54.3392 109.918 56.7484 113.235 56.7484C116.507 56.7484 119.078 54.3392 119.078 51.0314Z" fill="#4285F4"/>
<path d="M130.829 32.0913V59.9062H126.141V32.0913H130.829Z" fill="#34A853"/>
<path d="M149.1 54.1209L152.831 56.2776C151.627 57.8224 148.725 60.484 143.711 60.484C137.492 60.484 132.848 56.3161 132.848 50.9928C132.848 45.3485 137.532 41.5015 143.173 41.5015C148.854 41.5015 151.632 45.4212 152.54 47.5394L153.039 48.6178L138.405 53.8727C139.526 55.7769 141.268 56.7483 143.711 56.7483C146.159 56.7483 147.857 55.7042 149.1 54.1209ZM137.616 50.706L147.398 47.1843C146.86 45.9989 145.241 45.173 143.336 45.173C140.893 45.173 137.492 47.043 137.616 50.706Z" fill="#EA4335"/>
<path d="M37.2011 48.5279V44.5011H52.8511C53.0041 45.2029 53.0831 46.0331 53.0831 46.9317C53.0831 49.9529 52.1306 53.6886 49.0608 56.3503C46.0749 59.0462 42.2599 60.484 37.206 60.484C27.8387 60.484 19.9619 53.8683 19.9619 45.7464C19.9619 37.6244 27.8387 31.0088 37.206 31.0088C42.3882 31.0088 46.0798 32.7718 48.8535 35.0698L45.5764 37.9112C43.5875 36.2936 40.8928 35.0355 37.2011 35.0355C30.3607 35.0355 25.0108 39.8154 25.0108 45.7464C25.0108 51.6774 30.3607 56.4573 37.2011 56.4573C41.638 56.4573 44.1649 54.9125 45.7837 53.5089C47.0965 52.3706 47.9602 50.7445 48.3007 48.5236L37.2011 48.5279Z" fill="#4285F4"/>
</svg>
