<svg width="127" height="41" viewBox="0 0 127 41" fill="none" xmlns="http://www.w3.org/2000/svg">
<g clip-path="url(#clip0_81_96)">
<path d="M127 1.5C127 1.89782 126.628 2.27936 125.967 2.56066C125.305 2.84196 124.408 3 123.472 3C122.536 3 121.639 2.84196 120.978 2.56066C120.316 2.27936 119.944 1.89782 119.944 1.5C119.944 1.10218 120.316 0.720644 120.978 0.43934C121.639 0.158035 122.536 0 123.472 0C124.408 0 125.305 0.158035 125.967 0.43934C126.628 0.720644 127 1.10218 127 1.5Z" fill="black"/>
<path fill-rule="evenodd" clip-rule="evenodd" d="M32.338 40.794C14.478 40.794 0 34.638 0 27.044V1H11.7593V27.044C11.7593 29.3646 13.9274 31.5902 17.7866 33.2312C21.6459 34.8721 26.8801 35.794 32.338 35.794C43.8456 35.794 52.9167 32.023 52.9167 27.25H64.6759V34.75C64.6759 35.0815 64.9856 35.3995 65.537 35.6339C66.0883 35.8683 66.8361 36 67.6157 36C68.3954 36 69.1432 35.8683 69.6945 35.6339C70.2458 35.3995 70.5555 35.0815 70.5555 34.75V25.875C68.4197 26.0604 66.2136 26.0414 64.097 25.8196C61.9805 25.5977 60.0065 25.1784 58.3181 24.5921C56.6296 24.0058 55.269 23.2672 54.3348 22.4297C53.4006 21.5922 52.9162 20.6769 52.9167 19.75V7.25C52.9167 5.5924 54.4653 4.00269 57.2219 2.83058C59.9785 1.65848 63.7173 1 67.6157 1C71.5142 1 75.2529 1.65848 78.0096 2.83058C80.7662 4.00269 82.3148 5.5924 82.3148 7.25V34.75C82.3148 35.0815 82.6245 35.3995 83.1759 35.6339C83.7272 35.8683 84.4749 36 85.2546 36C86.0343 36 86.7821 35.8683 87.3334 35.6339C87.8847 35.3995 88.1944 35.0815 88.1944 34.75V7.25C88.1944 5.5924 89.7431 4.00269 92.4997 2.83058C95.2563 1.65848 98.9951 1 102.894 1C106.792 1 110.531 1.65848 113.287 2.83058C116.044 4.00269 117.593 5.5924 117.593 7.25V34.75C117.593 35.9107 116.832 37.0485 115.397 38.0358C113.962 39.0232 111.909 39.8211 109.467 40.3402C107.026 40.8593 104.292 41.079 101.573 40.9747C98.8547 40.8705 96.2579 40.4464 94.0741 39.75C91.532 40.5632 88.4358 41.002 85.2546 41C82.0734 41.002 78.9773 40.5632 76.4352 39.75C74.6661 40.3141 72.6204 40.7012 70.4507 40.8826C68.2809 41.064 66.0428 41.0349 63.9032 40.7975C61.7635 40.5601 59.7773 40.1205 58.0926 39.5115C56.4078 38.9025 55.0679 38.1397 54.1726 37.28C48.3964 39.477 40.7129 40.794 32.338 40.794ZM102.894 36C101.271 36 99.9537 35.44 99.9537 34.75V7.25C99.9537 6.91848 100.263 6.60054 100.815 6.36612C101.366 6.1317 102.114 6 102.894 6C103.673 6 104.421 6.1317 104.972 6.36612C105.524 6.60054 105.833 6.91848 105.833 7.25V34.75C105.833 35.44 104.516 36 102.894 36ZM70.5555 19.75C70.5555 20.0815 70.2458 20.3995 69.6945 20.6339C69.1432 20.8683 68.3954 21 67.6157 21C66.8361 21 66.0883 20.8683 65.537 20.6339C64.9856 20.3995 64.6759 20.0815 64.6759 19.75V7.25C64.6759 6.91848 64.9856 6.60054 65.537 6.36612C66.0883 6.1317 66.8361 6 67.6157 6C68.3954 6 69.1432 6.1317 69.6945 6.36612C70.2458 6.60054 70.5555 6.91848 70.5555 7.25V19.75Z" fill="black"/>
<path fill-rule="evenodd" clip-rule="evenodd" d="M17.6387 27.25C17.6387 28.9076 19.1873 30.4973 21.9439 31.6694C24.7005 32.8415 28.4393 33.5 32.3377 33.5C36.2362 33.5 39.975 32.8415 42.7316 31.6694C45.4882 30.4973 47.0368 28.9076 47.0368 27.25V7.25C47.0368 5.5924 45.4882 4.00269 42.7316 2.83058C39.975 1.65848 36.2362 1 32.3377 1C28.4393 1 24.7005 1.65848 21.9439 2.83058C19.1873 4.00269 17.6387 5.5924 17.6387 7.25V27.25ZM32.3377 28.5C30.715 28.5 29.3979 27.94 29.3979 27.25V7.25C29.3979 6.91848 29.7077 6.60054 30.259 6.36612C30.8103 6.1317 31.5581 6 32.3377 6C33.1174 6 33.8652 6.1317 34.4165 6.36612C34.9678 6.60054 35.2776 6.91848 35.2776 7.25V27.25C35.2776 27.94 33.9605 28.5 32.3377 28.5Z" fill="black"/>
</g>
<defs>
<clipPath id="clip0_81_96">
<rect width="127" height="41" fill="black"/>
</clipPath>
</defs>
</svg>
